<?xml version="1.0" encoding="UTF-8" standalone="no"?>
<!DOCTYPE svg PUBLIC "-//W3C//DTD SVG 1.1//EN" "http://www.w3.org/Graphics/SVG/1.1/DTD/svg11.dtd">
<!-- Generated by Microsoft Visio, SVG Export Mooremodel.svg Page-1 -->
<svg xmlns="http://www.w3.org/2000/svg" xmlns:xlink="http://www.w3.org/1999/xlink" xmlns:ev="http://www.w3.org/2001/xml-events"
		xmlns:v="http://schemas.microsoft.com/visio/2003/SVGExtensions/" width="5.58854in" height="3.36111in"
		viewBox="0 0 402.375 242" xml:space="preserve" color-interpolation-filters="sRGB" class="st13">
	<v:documentProperties v:langID="1033" v:viewMarkup="false"/>

	<style type="text/css">
	<![CDATA[
		.st1 {fill:#e1f1f7;stroke:#000000;stroke-linecap:round;stroke-linejoin:round;stroke-width:0.5}
		.st2 {stroke:#000000;stroke-linecap:round;stroke-linejoin:round;stroke-width:1}
		.st3 {stroke:#000000;stroke-linecap:round;stroke-linejoin:round;stroke-width:2}
		.st4 {fill:#fcebdd;stroke:#000000;stroke-linecap:round;stroke-linejoin:round;stroke-width:1}
		.st5 {fill:none;stroke:#000000;stroke-linecap:round;stroke-linejoin:round;stroke-width:1}
		.st6 {fill:#000000;stroke:#000000;stroke-linecap:round;stroke-linejoin:round;stroke-width:1}
		.st7 {fill:none;stroke:none;stroke-linecap:round;stroke-linejoin:round;stroke-width:0.75}
		.st8 {fill:#000000;font-family:Calibri;font-size:0.833336em}
		.st9 {fill:#000000;font-family:Calibri;font-size:1.00001em}
		.st10 {font-size:1em}
		.st11 {marker-end:url(#mrkr5-220);stroke:#000000;stroke-linecap:round;stroke-linejoin:round;stroke-width:1}
		.st12 {fill:#000000;fill-opacity:1;stroke:#000000;stroke-opacity:1;stroke-width:0.28409090909091}
		.st13 {fill:none;fill-rule:evenodd;font-size:12px;overflow:visible;stroke-linecap:square;stroke-miterlimit:3}
	]]>
	</style>

	<defs id="Markers">
		<g id="lend5">
			<path d="M 2 1 L 0 0 L 1.98117 -0.993387 C 1.67173 -0.364515 1.67301 0.372641 1.98465 1.00043 " style="stroke:none"/>
		</g>
		<marker id="mrkr5-220" class="st12" v:arrowType="5" v:arrowSize="2" v:setback="6.16" refX="-6.16" orient="auto"
				markerUnits="strokeWidth" overflow="visible">
			<use xlink:href="#lend5" transform="scale(-3.52,-3.52) "/>
		</marker>
	</defs>
	<g v:mID="0" v:index="1" v:groupContext="foregroundPage">
		<title>Page-1</title>
		<v:pageProperties v:drawingScale="1" v:pageScale="1" v:drawingUnits="19" v:shadowOffsetX="9" v:shadowOffsetY="-9"/>
		<g id="shape20-1" v:mID="20" v:groupContext="shape" transform="translate(144.375,-0.25)">
			<title>Rectangle.20</title>
			<v:userDefs>
				<v:ud v:nameU="visVersion" v:val="VT0(15):26"/>
			</v:userDefs>
			<rect x="0" y="46.25" width="92.25" height="195.75" class="st1"/>
		</g>
		<g id="shape49-3" v:mID="49" v:groupContext="shape" transform="translate(187.393,321.839) rotate(180)">
			<title>Sheet.49</title>
			<path d="M0 242 L25.02 242" class="st2"/>
		</g>
		<g id="shape22-6" v:mID="22" v:groupContext="shape" transform="translate(252.375,243) rotate(180)">
			<title>Sheet.22</title>
			<path d="M0 242 L220.5 242" class="st3"/>
		</g>
		<g id="shape47-9" v:mID="47" v:groupContext="shape" transform="translate(184.875,-151.25)">
			<title>Rectangle.47</title>
			<v:userDefs>
				<v:ud v:nameU="visVersion" v:val="VT0(15):26"/>
			</v:userDefs>
			<rect x="0" y="206.25" width="29.25" height="35.75" class="st4"/>
		</g>
		<g id="shape48-11" v:mID="48" v:groupContext="shape" transform="translate(426.875,75.25) rotate(90)">
			<title>Triangle.48</title>
			<v:userDefs>
				<v:ud v:nameU="visVersion" v:val="VT0(15):26"/>
			</v:userDefs>
			<path d="M9.18 242 L4.59 234.45 L0 242 L9.18 242 Z" class="st5"/>
		</g>
		<g id="shape50-13" v:mID="50" v:groupContext="shape" transform="translate(187.393,366.964) rotate(180)">
			<title>Sheet.50</title>
			<path d="M0 242 L25.02 242" class="st2"/>
		</g>
		<g id="shape51-16" v:mID="51" v:groupContext="shape" transform="translate(184.875,-106.125)">
			<title>Rectangle.51</title>
			<v:userDefs>
				<v:ud v:nameU="visVersion" v:val="VT0(15):26"/>
			</v:userDefs>
			<rect x="0" y="206.25" width="29.25" height="35.75" class="st4"/>
		</g>
		<g id="shape52-18" v:mID="52" v:groupContext="shape" transform="translate(426.875,120.375) rotate(90)">
			<title>Triangle.52</title>
			<v:userDefs>
				<v:ud v:nameU="visVersion" v:val="VT0(15):26"/>
			</v:userDefs>
			<path d="M9.18 242 L4.59 234.45 L0 242 L9.18 242 Z" class="st5"/>
		</g>
		<g id="shape53-20" v:mID="53" v:groupContext="shape" transform="translate(187.393,411.964) rotate(180)">
			<title>Sheet.53</title>
			<path d="M0 242 L25.02 242" class="st2"/>
		</g>
		<g id="shape54-23" v:mID="54" v:groupContext="shape" transform="translate(184.875,-61.125)">
			<title>Rectangle.54</title>
			<v:userDefs>
				<v:ud v:nameU="visVersion" v:val="VT0(15):26"/>
			</v:userDefs>
			<rect x="0" y="206.25" width="29.25" height="35.75" class="st4"/>
		</g>
		<g id="shape55-25" v:mID="55" v:groupContext="shape" transform="translate(426.875,165.375) rotate(90)">
			<title>Triangle.55</title>
			<v:userDefs>
				<v:ud v:nameU="visVersion" v:val="VT0(15):26"/>
			</v:userDefs>
			<path d="M9.18 242 L4.59 234.45 L0 242 L9.18 242 Z" class="st5"/>
		</g>
		<g id="shape56-27" v:mID="56" v:groupContext="shape" transform="translate(187.393,457.089) rotate(180)">
			<title>Sheet.56</title>
			<path d="M0 242 L160.04 242" class="st2"/>
		</g>
		<g id="shape57-30" v:mID="57" v:groupContext="shape" transform="translate(184.875,-16)">
			<title>Rectangle.57</title>
			<v:userDefs>
				<v:ud v:nameU="visVersion" v:val="VT0(15):26"/>
			</v:userDefs>
			<rect x="0" y="206.25" width="29.25" height="35.75" class="st4"/>
		</g>
		<g id="shape58-32" v:mID="58" v:groupContext="shape" transform="translate(426.875,210.5) rotate(90)">
			<title>Triangle.58</title>
			<v:userDefs>
				<v:ud v:nameU="visVersion" v:val="VT0(15):26"/>
			</v:userDefs>
			<path d="M9.18 242 L4.59 234.45 L0 242 L9.18 242 Z" class="st5"/>
		</g>
		<g id="shape59-34" v:mID="59" v:groupContext="shape" transform="translate(184.875,306) rotate(180)">
			<title>Sheet.59</title>
			<path d="M0 242 L13.5 242" class="st2"/>
		</g>
		<g id="shape60-37" v:mID="60" v:groupContext="shape" transform="translate(171.375,299.25) rotate(180)">
			<title>Sheet.60</title>
			<path d="M0 242 L139.5 242" class="st3"/>
		</g>
		<g id="shape61-40" v:mID="61" v:groupContext="shape" transform="translate(-70.625,199) rotate(-90)">
			<title>Sheet.61</title>
			<path d="M0 242 L141.75 242" class="st3"/>
		</g>
		<g id="shape62-43" v:mID="62" v:groupContext="shape" transform="translate(345.307,27.5989) rotate(45) scale(-1,1)">
			<title>Sheet.62</title>
			<path d="M0 242 L3.98 242" class="st2"/>
		</g>
		<g id="shape63-46" v:mID="63" v:groupContext="shape" transform="translate(184.875,350.438) rotate(180)">
			<title>Sheet.63</title>
			<path d="M0 242 L13.5 242" class="st2"/>
		</g>
		<g id="shape64-49" v:mID="64" v:groupContext="shape" transform="translate(345.589,-17.1198) rotate(45) scale(-1,1)">
			<title>Sheet.64</title>
			<path d="M0 242 L3.98 242" class="st2"/>
		</g>
		<g id="shape65-52" v:mID="65" v:groupContext="shape" transform="translate(184.875,396) rotate(180)">
			<title>Sheet.65</title>
			<path d="M0 242 L13.5 242" class="st2"/>
		</g>
		<g id="shape66-55" v:mID="66" v:groupContext="shape" transform="translate(345.589,-62.6823) rotate(45) scale(-1,1)">
			<title>Sheet.66</title>
			<path d="M0 242 L3.98 242" class="st2"/>
		</g>
		<g id="shape67-58" v:mID="67" v:groupContext="shape" transform="translate(184.875,441) rotate(180)">
			<title>Sheet.67</title>
			<path d="M0 242 L13.5 242" class="st2"/>
		</g>
		<g id="shape68-61" v:mID="68" v:groupContext="shape" transform="translate(345.307,-107.401) rotate(45) scale(-1,1)">
			<title>Sheet.68</title>
			<path d="M0 242 L3.98 242" class="st2"/>
		</g>
		<g id="shape69-64" v:mID="69" v:groupContext="shape" transform="translate(214.125,306) scale(1,-1)">
			<title>Sheet.69</title>
			<path d="M0 242 L13.5 242" class="st2"/>
		</g>
		<g id="shape71-67" v:mID="71" v:groupContext="shape" transform="translate(214.125,350.438) scale(1,-1)">
			<title>Sheet.71</title>
			<path d="M0 242 L13.5 242" class="st2"/>
		</g>
		<g id="shape73-70" v:mID="73" v:groupContext="shape" transform="translate(214.125,396) scale(1,-1)">
			<title>Sheet.73</title>
			<path d="M0 242 L13.5 242" class="st2"/>
		</g>
		<g id="shape75-73" v:mID="75" v:groupContext="shape" transform="translate(214.125,441) scale(1,-1)">
			<title>Sheet.75</title>
			<path d="M0 242 L13.5 242" class="st2"/>
		</g>
		<g id="shape77-76" v:mID="77" v:groupContext="shape" transform="translate(227.625,299.25) scale(1,-1)">
			<title>Sheet.77</title>
			<path d="M0 242 L56.25 242" class="st3"/>
		</g>
		<g id="shape78-79" v:mID="78" v:groupContext="shape" transform="translate(469.625,199) rotate(90) scale(-1,1)">
			<title>Sheet.78</title>
			<path d="M0 242 L141.75 242" class="st3"/>
		</g>
		<g id="shape79-82" v:mID="79" v:groupContext="shape" transform="translate(404.375,79.8391) rotate(90)">
			<title>Sheet.79</title>
			<path d="M0 242 L135.25 242" class="st2"/>
		</g>
		<g id="shape80-85" v:mID="80" v:groupContext="shape" transform="translate(199.5,337.5) rotate(180)">
			<title>Sheet.80</title>
			<path d="M0 242 L46.13 242" class="st2"/>
		</g>
		<g id="shape81-88" v:mID="81" v:groupContext="shape" transform="translate(441.5,90.75) rotate(90)">
			<title>Sheet.81</title>
			<path d="M0 242 L4.75 242" class="st2"/>
		</g>
		<g id="shape82-91" v:mID="82" v:groupContext="shape" transform="translate(198.375,382.5) rotate(180)">
			<title>Sheet.82</title>
			<path d="M0 242 L45 242" class="st2"/>
		</g>
		<g id="shape83-94" v:mID="83" v:groupContext="shape" transform="translate(440.375,135.75) rotate(90)">
			<title>Sheet.83</title>
			<path d="M0 242 L4.75 242" class="st2"/>
		</g>
		<g id="shape84-97" v:mID="84" v:groupContext="shape" transform="translate(395.375,95.5) rotate(90)">
			<title>Sheet.84</title>
			<path d="M0 242 L138.37 242" class="st2"/>
		</g>
		<g id="shape85-100" v:mID="85" v:groupContext="shape" transform="translate(198.375,427.5) rotate(180)">
			<title>Sheet.85</title>
			<path d="M0 242 L45 242" class="st2"/>
		</g>
		<g id="shape86-103" v:mID="86" v:groupContext="shape" transform="translate(440.375,180.75) rotate(90)">
			<title>Sheet.86</title>
			<path d="M0 242 L4.75 242" class="st2"/>
		</g>
		<g id="shape88-106" v:mID="88" v:groupContext="shape" transform="translate(440.375,226) rotate(90)">
			<title>Sheet.88</title>
			<path d="M0 242 L7.87 242" class="st2"/>
		</g>
		<g id="shape97-109" v:mID="97" v:groupContext="shape" transform="translate(161.531,-116.362)">
			<title>Circle.97</title>
			<v:userDefs>
				<v:ud v:nameU="visVersion" v:val="VT0(15):26"/>
			</v:userDefs>
			<path d="M0 241.16 a0.84375 0.84375 0 0 1 1.6875 0 a0.84375 0.84375 0 1 1 -1.6875 0 Z" class="st6"/>
		</g>
		<g id="shape98-111" v:mID="98" v:groupContext="shape" transform="translate(152.531,-100.701)">
			<title>Circle.98</title>
			<v:userDefs>
				<v:ud v:nameU="visVersion" v:val="VT0(15):26"/>
			</v:userDefs>
			<path d="M0 241.16 a0.84375 0.84375 0 0 1 1.6875 0 a0.84375 0.84375 0 1 1 -1.6875 0 Z" class="st6"/>
		</g>
		<g id="shape99-113" v:mID="99" v:groupContext="shape" transform="translate(161.531,-71.3617)">
			<title>Circle.99</title>
			<v:userDefs>
				<v:ud v:nameU="visVersion" v:val="VT0(15):26"/>
			</v:userDefs>
			<path d="M0 241.16 a0.84375 0.84375 0 0 1 1.6875 0 a0.84375 0.84375 0 1 1 -1.6875 0 Z" class="st6"/>
		</g>
		<g id="shape100-115" v:mID="100" v:groupContext="shape" transform="translate(152.531,-55.7008)">
			<title>Circle.100</title>
			<v:userDefs>
				<v:ud v:nameU="visVersion" v:val="VT0(15):26"/>
			</v:userDefs>
			<path d="M0 241.16 a0.84375 0.84375 0 0 1 1.6875 0 a0.84375 0.84375 0 1 1 -1.6875 0 Z" class="st6"/>
		</g>
		<g id="shape101-117" v:mID="101" v:groupContext="shape" transform="translate(52.9895,27.8802) rotate(-45)">
			<title>Sheet.101</title>
			<path d="M0 242 L3.98 242" class="st2"/>
		</g>
		<g id="shape102-120" v:mID="102" v:groupContext="shape" transform="translate(53.1302,-17.1198) rotate(-45)">
			<title>Sheet.102</title>
			<path d="M0 242 L3.98 242" class="st2"/>
		</g>
		<g id="shape103-123" v:mID="103" v:groupContext="shape" transform="translate(53.4114,-62.6823) rotate(-45)">
			<title>Sheet.103</title>
			<path d="M0 242 L3.98 242" class="st2"/>
		</g>
		<g id="shape104-126" v:mID="104" v:groupContext="shape" transform="translate(52.9895,-107.12) rotate(-45)">
			<title>Sheet.104</title>
			<path d="M0 242 L3.98 242" class="st2"/>
		</g>
		<g id="shape19-129" v:mID="19" v:groupContext="shape" transform="translate(219.469,-171.25) scale(-1,1)">
			<title>Sheet.19</title>
			<desc>D Q</desc>
			<v:textBlock v:margins="rect(4,4,4,4)"/>
			<v:textRect cx="17.9742" cy="235.25" width="35.95" height="13.5"/>
			<rect x="0" y="228.5" width="35.9483" height="13.5" class="st7"/>
			<text x="-31.95" y="237.75" transform="scale(-1,1)" class="st8" v:langID="1033"><v:paragraph v:spLine="-1"/><v:tabList/>D     Q</text>		</g>
		<g id="shape105-132" v:mID="105" v:groupContext="shape" transform="translate(219.162,-126.813) scale(-1,1)">
			<title>Sheet.105</title>
			<desc>D Q</desc>
			<v:textBlock v:margins="rect(4,4,4,4)"/>
			<v:textRect cx="17.9742" cy="235.25" width="35.95" height="13.5"/>
			<rect x="0" y="228.5" width="35.9483" height="13.5" class="st7"/>
			<text x="-31.95" y="237.75" transform="scale(-1,1)" class="st8" v:langID="1033"><v:paragraph v:spLine="-1"/><v:tabList/>D     Q</text>		</g>
		<g id="shape106-135" v:mID="106" v:groupContext="shape" transform="translate(219.162,-80.6875) scale(-1,1)">
			<title>Sheet.106</title>
			<desc>D Q</desc>
			<v:textBlock v:margins="rect(4,4,4,4)"/>
			<v:textRect cx="17.9742" cy="235.25" width="35.95" height="13.5"/>
			<rect x="0" y="228.5" width="35.9483" height="13.5" class="st7"/>
			<text x="-31.95" y="237.75" transform="scale(-1,1)" class="st8" v:langID="1033"><v:paragraph v:spLine="-1"/><v:tabList/>D     Q</text>		</g>
		<g id="shape107-138" v:mID="107" v:groupContext="shape" transform="translate(218.855,-36.25) scale(-1,1)">
			<title>Sheet.107</title>
			<desc>D Q</desc>
			<v:textBlock v:margins="rect(4,4,4,4)"/>
			<v:textRect cx="17.9742" cy="235.25" width="35.95" height="13.5"/>
			<rect x="0" y="228.5" width="35.9483" height="13.5" class="st7"/>
			<text x="-31.95" y="237.75" transform="scale(-1,1)" class="st8" v:langID="1033"><v:paragraph v:spLine="-1"/><v:tabList/>D     Q</text>		</g>
		<g id="shape108-141" v:mID="108" v:groupContext="shape" transform="translate(198.375,475.875) rotate(180)">
			<title>Sheet.108</title>
			<path d="M0 242 L171.03 242" class="st2"/>
		</g>
		<g id="shape109-144" v:mID="109" v:groupContext="shape" transform="translate(152.531,-7.28125)">
			<title>Circle.95</title>
			<v:userDefs>
				<v:ud v:nameU="visVersion" v:val="VT0(15):26"/>
			</v:userDefs>
			<path d="M0 241.16 a0.84375 0.84375 0 0 1 1.6875 0 a0.84375 0.84375 0 1 1 -1.6875 0 Z" class="st6"/>
		</g>
		<g id="shape110-146" v:mID="110" v:groupContext="shape" transform="translate(161.531,-26.0672)">
			<title>Circle.96</title>
			<v:userDefs>
				<v:ud v:nameU="visVersion" v:val="VT0(15):26"/>
			</v:userDefs>
			<path d="M0 241.16 a0.84375 0.84375 0 0 1 1.6875 0 a0.84375 0.84375 0 1 1 -1.6875 0 Z" class="st6"/>
		</g>
		<g id="shape112-148" v:mID="112" v:groupContext="shape" transform="translate(49.875,-43)">
			<title>Rectangle.112</title>
			<v:userDefs>
				<v:ud v:nameU="visVersion" v:val="VT0(15):26"/>
			</v:userDefs>
			<rect x="0" y="89" width="58.5" height="153" class="st1"/>
		</g>
		<g id="shape113-150" v:mID="113" v:groupContext="shape" transform="translate(273.875,1) rotate(90)">
			<title>Sheet.113</title>
			<path d="M0 242 L56.25 242" class="st3"/>
		</g>
		<g id="shape114-153" v:mID="114" v:groupContext="shape" transform="translate(494.375,1) rotate(90)">
			<title>Sheet.114</title>
			<path d="M0 242 L56.25 242" class="st3"/>
		</g>
		<g id="shape115-156" v:mID="115" v:groupContext="shape" transform="translate(279.375,-43)">
			<title>Rectangle.115</title>
			<v:userDefs>
				<v:ud v:nameU="visVersion" v:val="VT0(15):26"/>
			</v:userDefs>
			<rect x="0" y="89" width="58.5" height="153" class="st1"/>
		</g>
		<g id="shape116-158" v:mID="116" v:groupContext="shape" transform="translate(97.0992,-146.5) scale(-1,1)">
			<title>Sheet.116</title>
			<desc>Next State Logic</desc>
			<v:textBlock v:margins="rect(4,4,4,4)"/>
			<v:textRect cx="17.9742" cy="229.714" width="35.95" height="24.5719"/>
			<rect x="0" y="217.428" width="35.9483" height="24.5719" class="st7"/>
			<text x="-31.95" y="220.71" transform="scale(-1,1)" class="st9" v:langID="1033"><v:paragraph v:spLine="-1"/><v:tabList/>Next<v:newlineChar/><tspan
						x="-31.95" dy="1em" class="st10">State<v:newlineChar/></tspan><tspan x="-31.95" dy="1em" class="st10">Logic</tspan></text>		</g>
		<g id="shape117-163" v:mID="117" v:groupContext="shape" transform="translate(334.821,-158.875) scale(-1,1)">
			<title>Sheet.117</title>
			<desc>Output Decoder</desc>
			<v:textBlock v:margins="rect(4,4,4,4)"/>
			<v:textRect cx="25.4729" cy="235.25" width="50.95" height="13.5"/>
			<rect x="0" y="228.5" width="50.9458" height="13.5" class="st7"/>
			<text x="-46.95" y="232.25" transform="scale(-1,1)" class="st9" v:langID="1033"><v:paragraph v:spLine="-1"/><v:tabList/>Output<v:newlineChar/><tspan
						x="-46.95" dy="1em" class="st10">Decoder</tspan></text>		</g>
		<g id="shape119-167" v:mID="119" v:groupContext="shape" transform="translate(27.3492,-22.5719) scale(-1,1)">
			<title>Sheet.119</title>
			<desc>Clk</desc>
			<v:textBlock v:margins="rect(4,4,4,4)"/>
			<v:textRect cx="13.4742" cy="237.411" width="26.95" height="9.17813"/>
			<rect x="0" y="232.822" width="26.9483" height="9.17813" class="st7"/>
			<text x="-18.61" y="240.41" transform="scale(-1,1)" class="st9" v:langID="1033"><v:paragraph v:spLine="-1"
						v:horizAlign="2"/><v:tabList/>Clk</text>		</g>
		<g id="shape120-170" v:mID="120" v:groupContext="shape" transform="translate(27.3233,-3.53594) scale(-1,1)">
			<title>Sheet.120</title>
			<desc>Rst</desc>
			<v:textBlock v:margins="rect(4,4,4,4)"/>
			<v:textRect cx="13.4742" cy="237.411" width="26.95" height="9.17813"/>
			<rect x="0" y="232.822" width="26.9483" height="9.17813" class="st7"/>
			<text x="-19.23" y="240.41" transform="scale(-1,1)" class="st9" v:langID="1033"><v:paragraph v:spLine="-1"
						v:horizAlign="2"/><v:tabList/>Rst</text>		</g>
		<g id="shape121-173" v:mID="121" v:groupContext="shape" transform="translate(49.875,324.089) rotate(180)">
			<title>Sheet.121</title>
			<path d="M0 242 L22.5 242" class="st2"/>
		</g>
		<g id="shape122-176" v:mID="122" v:groupContext="shape" transform="translate(49.875,350.822) rotate(180)">
			<title>Sheet.122</title>
			<path d="M0 242 L22.5 242" class="st2"/>
		</g>
		<g id="shape123-179" v:mID="123" v:groupContext="shape" transform="translate(49.875,377.822) rotate(180)">
			<title>Sheet.123</title>
			<path d="M0 242 L22.5 242" class="st2"/>
		</g>
		<g id="shape124-182" v:mID="124" v:groupContext="shape" transform="translate(27.3233,-155.322) scale(-1,1)">
			<title>Sheet.124</title>
			<desc>In1</desc>
			<v:textBlock v:margins="rect(4,4,4,4)"/>
			<v:textRect cx="13.4742" cy="237.411" width="26.95" height="9.17813"/>
			<rect x="0" y="232.822" width="26.9483" height="9.17813" class="st7"/>
			<text x="-19.41" y="240.41" transform="scale(-1,1)" class="st9" v:langID="1033"><v:paragraph v:spLine="-1"
						v:horizAlign="2"/><v:tabList/>In1</text>		</g>
		<g id="shape125-185" v:mID="125" v:groupContext="shape" transform="translate(27.375,-128.5) scale(-1,1)">
			<title>Sheet.125</title>
			<desc>In2</desc>
			<v:textBlock v:margins="rect(4,4,4,4)"/>
			<v:textRect cx="13.4742" cy="237.411" width="26.95" height="9.17813"/>
			<rect x="0" y="232.822" width="26.9483" height="9.17813" class="st7"/>
			<text x="-19.41" y="240.41" transform="scale(-1,1)" class="st9" v:langID="1033"><v:paragraph v:spLine="-1"
						v:horizAlign="2"/><v:tabList/>In2</text>		</g>
		<g id="shape126-188" v:mID="126" v:groupContext="shape" transform="translate(27.375,-101.411) scale(-1,1)">
			<title>Sheet.126</title>
			<desc>In3</desc>
			<v:textBlock v:margins="rect(4,4,4,4)"/>
			<v:textRect cx="13.4742" cy="237.411" width="26.95" height="9.17813"/>
			<rect x="0" y="232.822" width="26.9483" height="9.17813" class="st7"/>
			<text x="-19.41" y="240.41" transform="scale(-1,1)" class="st9" v:langID="1033"><v:paragraph v:spLine="-1"
						v:horizAlign="2"/><v:tabList/>In3</text>		</g>
		<g id="shape127-191" v:mID="127" v:groupContext="shape" transform="translate(360.375,324.089) rotate(180)">
			<title>Sheet.127</title>
			<path d="M0 242 L22.5 242" class="st2"/>
		</g>
		<g id="shape128-194" v:mID="128" v:groupContext="shape" transform="translate(360.375,351.267) rotate(180)">
			<title>Sheet.128</title>
			<path d="M0 242 L22.5 242" class="st2"/>
		</g>
		<g id="shape129-197" v:mID="129" v:groupContext="shape" transform="translate(360.375,378.089) rotate(180)">
			<title>Sheet.129</title>
			<path d="M0 242 L22.5 242" class="st2"/>
		</g>
		<g id="shape130-200" v:mID="130" v:groupContext="shape" transform="translate(394.125,-155.322) scale(-1,1)">
			<title>Sheet.130</title>
			<desc>Out1</desc>
			<v:textBlock v:margins="rect(4,4,4,4)"/>
			<v:textRect cx="16.875" cy="237.411" width="33.76" height="9.17813"/>
			<rect x="0" y="232.822" width="33.75" height="9.17813" class="st7"/>
			<text x="-29.75" y="240.41" transform="scale(-1,1)" class="st9" v:langID="1033"><v:paragraph v:spLine="-1"/><v:tabList/>Out1</text>		</g>
		<g id="shape133-203" v:mID="133" v:groupContext="shape" transform="translate(394.125,-128.322) scale(-1,1)">
			<title>Sheet.133</title>
			<desc>Out2</desc>
			<v:textBlock v:margins="rect(4,4,4,4)"/>
			<v:textRect cx="16.875" cy="237.411" width="33.76" height="9.17813"/>
			<rect x="0" y="232.822" width="33.75" height="9.17813" class="st7"/>
			<text x="-29.75" y="240.41" transform="scale(-1,1)" class="st9" v:langID="1033"><v:paragraph v:spLine="-1"/><v:tabList/>Out2</text>		</g>
		<g id="shape134-206" v:mID="134" v:groupContext="shape" transform="translate(394.125,-101.678) scale(-1,1)">
			<title>Sheet.134</title>
			<desc>Out3</desc>
			<v:textBlock v:margins="rect(4,4,4,4)"/>
			<v:textRect cx="16.875" cy="237.411" width="33.76" height="9.17813"/>
			<rect x="0" y="232.822" width="33.75" height="9.17813" class="st7"/>
			<text x="-29.75" y="240.41" transform="scale(-1,1)" class="st9" v:langID="1033"><v:paragraph v:spLine="-1"/><v:tabList/>Out3</text>		</g>
		<g id="shape135-209" v:mID="135" v:groupContext="shape" transform="translate(360.094,-214) scale(-1,1)">
			<title>Sheet.135</title>
			<desc>Present State Bus</desc>
			<v:textBlock v:margins="rect(4,4,4,4)"/>
			<v:textRect cx="47.25" cy="237.411" width="94.5" height="9.17813"/>
			<rect x="0" y="232.822" width="94.5" height="9.17813" class="st7"/>
			<text x="-90.5" y="240.41" transform="scale(-1,1)" class="st9" v:langID="1033"><v:paragraph v:spLine="-1"/><v:tabList/>Present State Bus</text>		</g>
		<g id="shape136-212" v:mID="136" v:groupContext="shape" transform="translate(135.375,-205) scale(-1,1)">
			<title>Sheet.136</title>
			<desc>Next State Bus</desc>
			<v:textBlock v:margins="rect(4,4,4,4)"/>
			<v:textRect cx="47.25" cy="237.411" width="94.5" height="9.17813"/>
			<rect x="0" y="232.822" width="94.5" height="9.17813" class="st7"/>
			<text x="-90.5" y="240.41" transform="scale(-1,1)" class="st9" v:langID="1033"><v:paragraph v:spLine="-1"/><v:tabList/>Next State Bus</text>		</g>
		<g id="shape137-215" v:mID="137" v:groupContext="shape" transform="translate(327.49,-83.0656) rotate(60.2551)">
			<title>Sheet.137</title>
			<path d="M0 242 L11.98 242" class="st11"/>
		</g>
		<g id="shape138-221" v:mID="138" v:groupContext="shape" transform="translate(470.371,160.892) rotate(123.308)">
			<title>Sheet.138</title>
			<path d="M0 242 L14.33 242" class="st11"/>
		</g>
		<g id="shape139-226" v:mID="139" v:groupContext="shape" transform="translate(234.375,-198.072) scale(-1,1)">
			<title>Sheet.139</title>
			<desc>State Register</desc>
			<v:textBlock v:margins="rect(4,4,4,4)"/>
			<v:textRect cx="47.25" cy="237.411" width="94.5" height="9.17813"/>
			<rect x="0" y="232.822" width="94.5" height="9.17813" class="st7"/>
			<text x="-90.5" y="240.41" transform="scale(-1,1)" class="st9" v:langID="1033"><v:paragraph v:spLine="-1"/><v:tabList/>State Register</text>		</g>
		<g id="shape140-229" v:mID="140" v:groupContext="shape" transform="translate(360.375,423.445) rotate(180)">
			<title>Sheet.140</title>
			<path d="M0 242 L22.5 242" class="st2"/>
		</g>
		<g id="shape141-232" v:mID="141" v:groupContext="shape" transform="translate(402,-56.3219) scale(-1,1)">
			<title>Sheet.141</title>
			<desc>OutN</desc>
			<v:textBlock v:margins="rect(4,4,4,4)"/>
			<v:textRect cx="20.8125" cy="237.411" width="41.63" height="9.17813"/>
			<rect x="0" y="232.822" width="41.625" height="9.17813" class="st7"/>
			<text x="-37.62" y="240.41" transform="scale(-1,1)" class="st9" v:langID="1033"><v:paragraph v:spLine="-1"/><v:tabList/>OutN</text>		</g>
		<g id="shape142-235" v:mID="142" v:groupContext="shape" transform="translate(350.531,-80.9688)">
			<title>Circle.142</title>
			<v:userDefs>
				<v:ud v:nameU="visVersion" v:val="VT0(15):26"/>
			</v:userDefs>
			<path d="M0 241.16 a0.84375 0.84375 0 0 1 1.6875 0 a0.84375 0.84375 0 1 1 -1.6875 0 Z" class="st6"/>
		</g>
		<g id="shape143-237" v:mID="143" v:groupContext="shape" transform="translate(350.531,-89.9688)">
			<title>Circle.143</title>
			<v:userDefs>
				<v:ud v:nameU="visVersion" v:val="VT0(15):26"/>
			</v:userDefs>
			<path d="M0 241.16 a0.84375 0.84375 0 0 1 1.6875 0 a0.84375 0.84375 0 1 1 -1.6875 0 Z" class="st6"/>
		</g>
		<g id="shape144-239" v:mID="144" v:groupContext="shape" transform="translate(350.531,-71.9688)">
			<title>Circle.144</title>
			<v:userDefs>
				<v:ud v:nameU="visVersion" v:val="VT0(15):26"/>
			</v:userDefs>
			<path d="M0 241.16 a0.84375 0.84375 0 0 1 1.6875 0 a0.84375 0.84375 0 1 1 -1.6875 0 Z" class="st6"/>
		</g>
		<g id="shape145-241" v:mID="145" v:groupContext="shape" transform="translate(38.625,-82.6563)">
			<title>Circle.145</title>
			<v:userDefs>
				<v:ud v:nameU="visVersion" v:val="VT0(15):26"/>
			</v:userDefs>
			<path d="M0 241.16 a0.84375 0.84375 0 0 1 1.6875 0 a0.84375 0.84375 0 1 1 -1.6875 0 Z" class="st6"/>
		</g>
		<g id="shape146-243" v:mID="146" v:groupContext="shape" transform="translate(38.625,-91.6563)">
			<title>Circle.146</title>
			<v:userDefs>
				<v:ud v:nameU="visVersion" v:val="VT0(15):26"/>
			</v:userDefs>
			<path d="M0 241.16 a0.84375 0.84375 0 0 1 1.6875 0 a0.84375 0.84375 0 1 1 -1.6875 0 Z" class="st6"/>
		</g>
		<g id="shape147-245" v:mID="147" v:groupContext="shape" transform="translate(38.625,-73.6563)">
			<title>Circle.147</title>
			<v:userDefs>
				<v:ud v:nameU="visVersion" v:val="VT0(15):26"/>
			</v:userDefs>
			<path d="M0 241.16 a0.84375 0.84375 0 0 1 1.6875 0 a0.84375 0.84375 0 1 1 -1.6875 0 Z" class="st6"/>
		</g>
		<g id="shape148-247" v:mID="148" v:groupContext="shape" transform="translate(49.8233,422.911) rotate(180)">
			<title>Sheet.148</title>
			<path d="M0 242 L22.5 242" class="st2"/>
		</g>
		<g id="shape149-250" v:mID="149" v:groupContext="shape" transform="translate(27.3233,-56.3219) scale(-1,1)">
			<title>Sheet.149</title>
			<desc>InN</desc>
			<v:textBlock v:margins="rect(4,4,4,4)"/>
			<v:textRect cx="13.4742" cy="237.411" width="26.95" height="9.17813"/>
			<rect x="0" y="232.822" width="26.9483" height="9.17813" class="st7"/>
			<text x="-21.07" y="240.41" transform="scale(-1,1)" class="st9" v:langID="1033"><v:paragraph v:spLine="-1"
						v:horizAlign="2"/><v:tabList/>InN</text>		</g>
	</g>
</svg>
